<?xml version="1.0" encoding="UTF-8" standalone="no"?>
<!-- Created with Inkscape (http://www.inkscape.org/) -->

<svg
   xmlns:dc="http://purl.org/dc/elements/1.1/"
   xmlns:cc="http://creativecommons.org/ns#"
   xmlns:rdf="http://www.w3.org/1999/02/22-rdf-syntax-ns#"
   xmlns:svg="http://www.w3.org/2000/svg"
   xmlns="http://www.w3.org/2000/svg"
   xmlns:xlink="http://www.w3.org/1999/xlink"
   xmlns:sodipodi="http://sodipodi.sourceforge.net/DTD/sodipodi-0.dtd"
   xmlns:inkscape="http://www.inkscape.org/namespaces/inkscape"
   width="744.09448819"
   height="1052.3622047"
   id="svg2"
   version="1.1"
   inkscape:version="0.48.2 r9819"
   sodipodi:docname="tree_2.svg">
  <defs
     id="defs4">
    <linearGradient
       id="linearGradient3792">
      <stop
         style="stop-color:#844f00;stop-opacity:1;"
         offset="0"
         id="stop3794" />
      <stop
         style="stop-color:#4c2f02;stop-opacity:1;"
         offset="1"
         id="stop3796" />
    </linearGradient>
    <linearGradient
       id="linearGradient3776">
      <stop
         style="stop-color:#00ae00;stop-opacity:1;"
         offset="0"
         id="stop3778" />
      <stop
         style="stop-color:#004800;stop-opacity:1;"
         offset="1"
         id="stop3780" />
    </linearGradient>
    <linearGradient
       inkscape:collect="always"
       xlink:href="#linearGradient3792"
       id="linearGradient3798"
       x1="309.28571"
       y1="892.36215"
       x2="443.57143"
       y2="892.36215"
       gradientUnits="userSpaceOnUse"
       gradientTransform="matrix(0.76595746,0,0,4.0000001,86.671727,-2826.515)" />
    <linearGradient
       inkscape:collect="always"
       xlink:href="#linearGradient3792"
       id="linearGradient3863"
       x1="391.78723"
       y1="504.99374"
       x2="467.10638"
       y2="368.15164"
       gradientUnits="userSpaceOnUse"
       gradientTransform="matrix(0.79661017,0,0,0.73076924,107.8983,283.32828)" />
    <linearGradient
       inkscape:collect="always"
       xlink:href="#linearGradient3792"
       id="linearGradient3867"
       gradientUnits="userSpaceOnUse"
       x1="369.27206"
       y1="516.36218"
       x2="469.6976"
       y2="352.15164"
       gradientTransform="matrix(-0.79661017,0,0,0.73076924,634.16588,295.02059)" />
    <linearGradient
       inkscape:collect="always"
       xlink:href="#linearGradient3776"
       id="linearGradient3879"
       x1="200"
       y1="-187.63782"
       x2="200"
       y2="12.362183"
       gradientUnits="userSpaceOnUse" />
    <linearGradient
       inkscape:collect="always"
       xlink:href="#linearGradient3776"
       id="linearGradient3887"
       x1="120"
       y1="-267.63782"
       x2="120"
       y2="-107.63782"
       gradientUnits="userSpaceOnUse" />
    <linearGradient
       inkscape:collect="always"
       xlink:href="#linearGradient3776"
       id="linearGradient3891"
       gradientUnits="userSpaceOnUse"
       x1="120"
       y1="-267.63782"
       x2="120"
       y2="-107.63782" />
    <linearGradient
       inkscape:collect="always"
       xlink:href="#linearGradient3776"
       id="linearGradient3895"
       gradientUnits="userSpaceOnUse"
       x1="120"
       y1="-267.63782"
       x2="120"
       y2="-107.63782" />
    <linearGradient
       inkscape:collect="always"
       xlink:href="#linearGradient3776"
       id="linearGradient3899"
       gradientUnits="userSpaceOnUse"
       x1="120"
       y1="-267.63782"
       x2="120"
       y2="-107.63782" />
    <linearGradient
       inkscape:collect="always"
       xlink:href="#linearGradient3776"
       id="linearGradient3903"
       gradientUnits="userSpaceOnUse"
       x1="120"
       y1="-267.63782"
       x2="120"
       y2="-107.63782" />
    <linearGradient
       inkscape:collect="always"
       xlink:href="#linearGradient3792"
       id="linearGradient3905"
       gradientUnits="userSpaceOnUse"
       gradientTransform="matrix(0.6101695,0,0,2.9999998,176.94188,-1856.7955)"
       x1="309.28571"
       y1="892.36215"
       x2="443.57143"
       y2="892.36215" />
    <linearGradient
       inkscape:collect="always"
       xlink:href="#linearGradient3776"
       id="linearGradient3921"
       gradientUnits="userSpaceOnUse"
       x1="120"
       y1="-267.63782"
       x2="120"
       y2="-107.63782" />
    <linearGradient
       inkscape:collect="always"
       xlink:href="#linearGradient3776"
       id="linearGradient3925"
       gradientUnits="userSpaceOnUse"
       x1="120"
       y1="-267.63782"
       x2="120"
       y2="-107.63782" />
  </defs>
  <sodipodi:namedview
     id="base"
     pagecolor="#ffffff"
     bordercolor="#666666"
     borderopacity="1.0"
     inkscape:pageopacity="0.0"
     inkscape:pageshadow="2"
     inkscape:zoom="0.64"
     inkscape:cx="450.70525"
     inkscape:cy="461.93359"
     inkscape:document-units="px"
     inkscape:current-layer="layer1"
     showgrid="true"
     inkscape:window-width="1625"
     inkscape:window-height="1006"
     inkscape:window-x="1280"
     inkscape:window-y="0"
     inkscape:window-maximized="1">
    <inkscape:grid
       type="xygrid"
       id="grid3845" />
  </sodipodi:namedview>
  <metadata
     id="metadata7">
    <rdf:RDF>
      <cc:Work
         rdf:about="">
        <dc:format>image/svg+xml</dc:format>
        <dc:type
           rdf:resource="http://purl.org/dc/dcmitype/StillImage" />
        <dc:title></dc:title>
      </cc:Work>
    </rdf:RDF>
  </metadata>
  <g
     inkscape:label="Layer 1"
     inkscape:groupmode="layer"
     id="layer1">
    <path
       sodipodi:type="arc"
       style="fill:url(#linearGradient3925);fill-opacity:1;stroke:none"
       id="path3923"
       sodipodi:cx="140"
       sodipodi:cy="-187.63782"
       sodipodi:rx="100"
       sodipodi:ry="80"
       d="m 240,-187.63782 a 100,80 0 1 1 -200,0 100,80 0 1 1 200,0 z"
       transform="matrix(0.99623939,0,0,0.88461566,100.52649,429.11879)" />
    <path
       transform="matrix(0.99623939,0,0,0.88461566,400.52649,449.11879)"
       d="m 240,-187.63782 a 100,80 0 1 1 -200,0 100,80 0 1 1 200,0 z"
       sodipodi:ry="80"
       sodipodi:rx="100"
       sodipodi:cy="-187.63782"
       sodipodi:cx="140"
       id="path3919"
       style="fill:url(#linearGradient3921);fill-opacity:1;stroke:none"
       sodipodi:type="arc" />
    <path
       transform="matrix(1.4139831,0,0,1.0961539,356.04237,585.73441)"
       d="m 240,-187.63782 a 100,80 0 1 1 -200,0 100,80 0 1 1 200,0 z"
       sodipodi:ry="80"
       sodipodi:rx="100"
       sodipodi:cy="-187.63782"
       sodipodi:cx="140"
       id="path3897"
       style="fill:url(#linearGradient3899);fill-opacity:1;stroke:none"
       sodipodi:type="arc" />
    <path
       sodipodi:type="arc"
       style="fill:url(#linearGradient3895);fill-opacity:1;stroke:none"
       id="path3893"
       sodipodi:cx="140"
       sodipodi:cy="-187.63782"
       sodipodi:rx="100"
       sodipodi:ry="80"
       d="m 240,-187.63782 a 100,80 0 1 1 -200,0 100,80 0 1 1 200,0 z"
       transform="matrix(1.1949153,0,0,1.0961539,12.711858,565.73442)" />
    <path
       sodipodi:type="arc"
       style="fill:url(#linearGradient3903);fill-opacity:1;stroke:none"
       id="path3901"
       sodipodi:cx="140"
       sodipodi:cy="-187.63782"
       sodipodi:rx="100"
       sodipodi:ry="80"
       d="m 240,-187.63782 a 100,80 0 1 1 -200,0 100,80 0 1 1 200,0 z"
       transform="matrix(1.1849576,0,0,1.0961539,215.61018,518.04211)" />
    <path
       sodipodi:nodetypes="csccc"
       inkscape:connector-curvature="0"
       id="path3865"
       d="m 275.18644,533.51603 c 15.9322,58.46154 40.33538,84.76923 80.16589,106.69231 38.64127,21.26851 -0.50487,39.46153 -0.50487,39.46153 0,0 -87.62712,-43.84615 -118.98666,-134.46153 7.9661,0 15.42734,-11.69231 39.32564,-11.69231 z"
       style="fill:url(#linearGradient3867);fill-opacity:1;stroke:none" />
    <path
       style="fill:url(#linearGradient3863);fill-opacity:1;stroke:none"
       d="m 458.40678,533.51603 c -7.9661,58.46154 -31.86441,73.07692 -71.69492,95 -38.64127,21.26851 15.93221,29.23077 15.93221,29.23077 0,0 79.66101,-29.23077 103.55932,-124.23077 -7.9661,0 -23.89831,0 -47.79661,0 z"
       id="path3847"
       inkscape:connector-curvature="0"
       sodipodi:nodetypes="csccc" />
    <path
       style="fill:url(#linearGradient3905);fill-opacity:1;stroke:none"
       d="m 329.24211,573.86216 c 67.59462,-63.6396 -2.15876,-65.13958 65.43586,-1.49998 31.8644,120 31.8644,299.99999 31.8644,480.00002 -26.54237,0 -36.54237,0 -63.72881,0 0,-180.00003 5.8073,-294.86045 -33.57145,-478.50004 z"
       id="rect3004"
       inkscape:connector-curvature="0"
       sodipodi:nodetypes="ccccc" />
    <path
       sodipodi:type="arc"
       style="fill:url(#linearGradient3879);fill-opacity:1;stroke:none"
       id="path3871"
       sodipodi:cx="200"
       sodipodi:cy="-87.637817"
       sodipodi:rx="160"
       sodipodi:ry="100"
       d="m 360,-87.637817 a 160,100 0 1 1 -320,0 160,100 0 1 1 320,0 z"
       transform="matrix(0.79661017,0,0,0.73076924,362.81356,546.4052)" />
    <path
       transform="matrix(1.5533898,0,0,1.4615385,145.33898,741.98669)"
       d="m 240,-187.63782 a 100,80 0 1 1 -200,0 100,80 0 1 1 200,0 z"
       sodipodi:ry="80"
       sodipodi:rx="100"
       sodipodi:cy="-187.63782"
       sodipodi:cx="140"
       id="path3889"
       style="fill:url(#linearGradient3891);fill-opacity:1;stroke:none"
       sodipodi:type="arc" />
    <path
       sodipodi:type="arc"
       style="fill:url(#linearGradient3887);fill-opacity:1;stroke:none"
       id="path3869"
       sodipodi:cx="140"
       sodipodi:cy="-187.63782"
       sodipodi:rx="100"
       sodipodi:ry="80"
       d="m 240,-187.63782 a 100,80 0 1 1 -200,0 100,80 0 1 1 200,0 z"
       transform="matrix(1.1949153,0,0,1.0961539,36.20339,702.65749)" />
  </g>
</svg>
